<?xml version="1.0" encoding="UTF-8"?> <svg xmlns="http://www.w3.org/2000/svg" width="445" height="57" viewBox="0 0 445 57" fill="none"> <path d="M37.7222 54.6968C37.3628 54.7866 36.8799 54.8877 36.2734 55C35.6895 55.0898 34.9595 55.2134 34.0835 55.3706C32.3315 55.6401 30.3101 55.7749 28.019 55.7749C25.6157 55.7749 23.3022 55.5615 21.0786 55.1348C18.8774 54.7305 16.7549 54.0454 14.7109 53.0796C12.3525 51.9565 10.3086 50.5977 8.5791 49.0029C6.87207 47.3857 5.42334 45.5215 4.23291 43.4102C3.02002 41.3438 2.11035 39.1763 1.50391 36.9077C0.919922 34.6392 0.62793 32.2808 0.62793 29.8325C0.62793 26.6206 1.18945 23.3525 2.3125 20.0283C3.41309 16.7715 5.06396 13.7954 7.26514 11.1001C8.36572 9.75244 9.55615 8.51709 10.8364 7.39404C12.1167 6.24854 13.5317 5.24902 15.0815 4.39551C16.7661 3.45215 18.7764 2.77832 21.1123 2.37402C23.4707 1.94727 26.1772 1.73389 29.2319 1.73389C30.1753 1.73389 31.0513 1.74512 31.8599 1.76758C32.6909 1.76758 33.4995 1.8125 34.2856 1.90234C35.0718 1.94727 35.7231 2.00342 36.2397 2.0708C36.7788 2.11572 37.228 2.16064 37.5874 2.20557V10.1567C36.936 9.21338 36.1836 8.34863 35.3301 7.5625C34.499 6.75391 33.4995 6.04639 32.3315 5.43994C31.186 4.87842 30.0293 4.46289 28.8613 4.19336C27.7158 3.90137 26.5029 3.75537 25.2227 3.75537C22.3027 3.75537 19.4614 4.62012 16.6987 6.34961C15.3286 7.1582 14.0933 8.2251 12.9927 9.55029C11.8921 10.853 10.9038 12.4028 10.0278 14.1997C8.38818 17.8159 7.56836 22.2183 7.56836 27.4067C7.56836 30.4839 7.77051 33.2803 8.1748 35.7959C8.60156 38.3115 9.2417 40.5913 10.0952 42.6353C11.7798 46.5884 14.0259 49.4971 16.8335 51.3613C18.2036 52.2148 19.6187 52.855 21.0786 53.2817C22.561 53.7085 24.0884 53.9443 25.6606 53.9893C27.8843 53.9893 30.1079 53.54 32.3315 52.6416C33.4771 52.125 34.4766 51.5747 35.3301 50.9907C36.2061 50.3843 37.0034 49.7329 37.7222 49.0366V54.6968ZM71.6157 51.833C71.9302 52.7764 72.2783 53.5288 72.6602 54.0903C73.0645 54.6294 73.3228 54.9326 73.4351 55H66.3262C66.2139 54.3486 66.0342 53.439 65.7871 52.271C65.54 51.103 65.293 49.8789 65.0459 48.5986C64.7539 46.9814 64.5068 45.2969 64.3047 43.5449C64.1025 41.793 63.9229 40.0635 63.7656 38.3564C63.6309 36.627 63.5073 34.9648 63.395 33.3701C63.3052 31.7529 63.2266 30.2817 63.1592 28.9565C63.1143 27.6313 63.0581 26.4858 62.9907 25.52C62.9458 24.5542 62.9009 23.8467 62.856 23.3975C62.4292 20.3877 61.5532 18.1416 60.228 16.6592C58.9028 15.1543 57.0835 14.4019 54.77 14.4019C54.0063 14.4019 53.2202 14.5591 52.4116 14.8735C51.6255 15.1655 50.8843 15.5137 50.188 15.918C49.5142 16.3223 48.9302 16.7153 48.436 17.0972C47.9644 17.4565 47.6499 17.7036 47.4927 17.8384V55H42.54V13.9639H47.4927V16.3896C47.605 16.2998 47.8521 16.1201 48.2339 15.8506C48.6382 15.5811 49.1323 15.2778 49.7163 14.9409C50.3228 14.604 51.0078 14.2783 51.7715 13.9639C52.5352 13.6494 53.3438 13.3911 54.1973 13.189C55.0508 12.9868 55.9268 12.8857 56.8252 12.8857C57.7461 12.8857 58.667 13.043 59.5879 13.3574C60.958 13.7842 62.0811 14.3569 62.957 15.0757C63.8555 15.7944 64.6304 16.6255 65.2817 17.5688C66.4946 19.5679 67.2583 22.1733 67.5728 25.3853C68.022 29.2485 68.4263 32.6514 68.7856 35.5938C69.145 38.5137 69.4819 41.0518 69.7964 43.208C70.1108 45.3418 70.4141 47.1162 70.7061 48.5312C70.998 49.9238 71.3013 51.0244 71.6157 51.833ZM100.691 55V53.7197C100.242 53.9219 99.6694 54.1353 98.9731 54.3599C98.2769 54.5845 97.4233 54.8428 96.4126 55.1348C95.4692 55.4268 94.5259 55.6626 93.5825 55.8423C92.6392 56.0444 91.6284 56.1455 90.5503 56.1455C89.3374 56.1006 88.1357 55.9097 86.9453 55.5728C85.7773 55.2358 84.6206 54.7529 83.4751 54.124C82.3521 53.4727 81.3413 52.709 80.4429 51.833C79.5444 50.9346 78.7246 49.8789 77.9834 48.666C77.2871 47.5205 76.7705 46.3188 76.4336 45.061C76.0967 43.7808 75.9282 42.4556 75.9282 41.0854C75.9282 40.1421 75.9956 39.1987 76.1304 38.2554C76.2876 37.312 76.4897 36.3237 76.7368 35.2905C77.0513 34.3472 77.4443 33.415 77.916 32.4941C78.4102 31.5732 79.0391 30.686 79.8027 29.8325C80.5215 28.979 81.3525 28.249 82.2959 27.6426C83.2393 27.0137 84.3511 26.4858 85.6313 26.0591C86.8442 25.5874 88.0234 25.228 89.1689 24.981C90.3369 24.7114 91.4487 24.5767 92.5044 24.5767C93.5151 24.5767 94.436 24.644 95.2671 24.7788C96.1206 24.8911 96.918 25.0933 97.6592 25.3853C98.4004 25.6323 99.0068 25.8682 99.4785 26.0928C99.9727 26.3174 100.377 26.5083 100.691 26.6655C100.691 22.5552 99.9614 19.4893 98.5015 17.4678C97.064 15.4238 94.9077 14.4019 92.0327 14.4019H91.8306C90.3481 14.4019 89.1465 14.6489 88.2256 15.1431C87.3047 15.6147 86.5972 16.2773 86.103 17.1309C85.564 18.0293 85.1709 18.8379 84.9238 19.5566C84.6992 20.2529 84.5645 20.8818 84.5195 21.4434H79.3647C79.3647 21.1064 79.4097 20.7358 79.4995 20.3315C79.5894 19.9048 79.7354 19.4556 79.9375 18.9839C80.1846 18.4673 80.4766 17.9844 80.8135 17.5352C81.1504 17.0635 81.5659 16.603 82.0601 16.1538C82.5093 15.6821 83.0596 15.2666 83.7109 14.9072C84.3848 14.5479 85.1147 14.2109 85.9009 13.8965C86.7319 13.627 87.6304 13.4136 88.5962 13.2563C89.562 13.0991 90.6401 13.0205 91.8306 13.0205C93.1333 13.0205 94.3574 13.1104 95.5029 13.29C96.6484 13.4697 97.7603 13.7505 98.8384 14.1323C100.815 14.8286 102.41 16.0415 103.623 17.771C104.207 18.6021 104.656 19.5005 104.97 20.4663C105.285 21.4321 105.442 22.5215 105.442 23.7344V55H100.691ZM100.691 28.3501C100.377 28.1704 99.9839 27.9683 99.5122 27.7437C99.0405 27.4966 98.4453 27.2158 97.7266 26.9014C96.2891 26.3398 94.7617 26.0591 93.1445 26.0591C91.999 26.0591 90.8984 26.2163 89.8428 26.5308C88.7871 26.8452 87.7539 27.3506 86.7432 28.0469C83.374 30.3379 81.6895 34.145 81.6895 39.4683V41.0854C81.6895 44.8589 82.4644 47.8237 84.0142 49.98C85.564 52.1138 87.7427 53.4502 90.5503 53.9893C92.3921 54.3711 93.3579 54.562 93.4478 54.562C95.2446 54.562 96.7832 54.2251 98.0635 53.5513C98.7148 53.2368 99.2539 52.9448 99.6807 52.6753C100.107 52.3833 100.444 52.125 100.691 51.9004V28.3501ZM140.548 53.1807C140.256 53.3154 139.706 53.5625 138.897 53.9219C138.089 54.2812 137.134 54.6406 136.034 55C134.933 55.3369 133.754 55.6289 132.496 55.876C131.238 56.123 130.025 56.2129 128.857 56.1455C127.375 56.0781 126.061 55.8872 124.916 55.5728C123.77 55.2583 122.647 54.8091 121.546 54.2251C119.255 53.0347 117.279 51.4512 115.617 49.4746C113.932 47.6104 112.663 45.3979 111.81 42.8374C111.315 41.6021 110.922 40.3442 110.63 39.064C110.361 37.7837 110.249 36.4585 110.293 35.0884C110.383 33.4937 110.653 31.8315 111.102 30.1021C111.551 28.3726 112.169 26.8003 112.955 25.3853C113.674 23.9927 114.471 22.7124 115.347 21.5444C116.223 20.3765 117.223 19.3096 118.346 18.3438C119.424 17.3555 120.479 16.5244 121.513 15.8506C122.568 15.1768 123.635 14.6489 124.713 14.2671C125.589 13.9526 126.589 13.728 127.712 13.5933C128.857 13.436 130.149 13.3574 131.586 13.3574C133.338 13.3574 134.821 13.4248 136.034 13.5596C136.663 13.6719 137.202 13.7505 137.651 13.7954C138.1 13.8403 138.471 13.8965 138.763 13.9639V18.9165C138.561 18.5571 138.212 18.1528 137.718 17.7036C137.247 17.2544 136.663 16.7378 135.966 16.1538C135.629 15.8618 135.18 15.5923 134.619 15.3452C134.057 15.0981 133.428 14.896 132.732 14.7388C132.058 14.5591 131.328 14.4355 130.542 14.3682C129.778 14.3008 129.026 14.312 128.285 14.4019C126.825 14.6265 125.578 14.9971 124.545 15.5137C123.534 16.0078 122.58 16.7266 121.681 17.6699C120.828 18.6582 120.109 19.7476 119.525 20.938C118.963 22.106 118.402 23.4424 117.84 24.9473C117.526 25.8906 117.268 26.9463 117.065 28.1143C116.863 29.2822 116.706 30.3828 116.594 31.416C116.504 32.4268 116.437 33.2915 116.392 34.0103C116.369 34.7065 116.358 35.0659 116.358 35.0884C116.358 36.9976 116.526 38.8618 116.863 40.6812C117.2 42.478 117.717 44.2524 118.413 46.0044C119.873 49.4409 122.22 51.9565 125.455 53.5513C126.308 53.9556 127.162 54.2812 128.015 54.5283C128.869 54.7529 129.745 54.8652 130.643 54.8652C132.732 54.8652 134.72 54.4834 136.606 53.7197C137.527 53.3828 138.302 53.0571 138.931 52.7427C139.583 52.4282 140.122 52.1475 140.548 51.9004V53.1807ZM167.299 55V28.0469L149.308 35.9644V55H144.221V14.3008H149.308V34.5493L167.299 26.5981V14.3008H172.454V55H167.299ZM213.052 34.7178C213.052 38.4688 212.221 41.9951 210.559 45.2969C209.728 46.959 208.773 48.4526 207.695 49.7778C206.64 51.103 205.404 52.2373 203.989 53.1807C201.294 55.1572 198.542 56.1455 195.735 56.1455C193.062 56.1455 190.344 55.1572 187.582 53.1807C186.234 52.2373 185.01 51.103 183.909 49.7778C182.831 48.4526 181.865 46.959 181.012 45.2969C179.305 42.04 178.451 38.5137 178.451 34.7178C178.451 33.999 178.451 33.1455 178.451 32.1572C178.451 31.1689 178.462 29.9561 178.485 28.5186C178.53 27.0811 178.575 25.3628 178.62 23.3638C178.665 21.3647 178.743 18.9839 178.855 16.2212C178.9 14.7163 179.091 13.3687 179.428 12.1782C179.765 10.9653 180.181 9.88721 180.675 8.94385C181.169 7.97803 181.708 7.14697 182.292 6.45068C182.898 5.73193 183.482 5.12549 184.044 4.63135C184.628 4.13721 185.167 3.73291 185.661 3.41846C186.155 3.104 186.548 2.86816 186.84 2.71094C187.492 2.35156 188.154 2.05957 188.828 1.83496C189.502 1.61035 190.198 1.43066 190.917 1.2959C191.658 1.16113 192.422 1.06006 193.208 0.992676C194.017 0.902832 194.859 0.812988 195.735 0.723145C196.431 0.633301 197.161 0.577148 197.925 0.554688C198.688 0.509766 199.463 0.498535 200.25 0.520996C201.036 0.520996 201.811 0.543457 202.574 0.588379C203.36 0.61084 204.113 0.644531 204.832 0.689453C206.494 0.801758 208.145 0.958984 209.784 1.16113V7.02344C208.414 6.61914 207.033 6.24854 205.64 5.91162C204.45 5.64209 203.169 5.39502 201.799 5.17041C200.429 4.92334 199.16 4.7998 197.992 4.7998C196.959 4.7998 195.926 4.82227 194.893 4.86719C193.882 4.91211 192.916 5.00195 191.995 5.13672C191.074 5.24902 190.232 5.40625 189.468 5.6084C188.705 5.78809 188.076 6.02393 187.582 6.31592C186.458 6.98975 185.526 7.64111 184.785 8.27002C184.066 8.87646 183.471 9.52783 183 10.2241C182.528 10.9204 182.146 11.6729 181.854 12.4814C181.562 13.2676 181.281 14.1772 181.012 15.2104C180.854 15.9292 180.731 16.7041 180.641 17.5352C180.551 18.3662 180.484 19.2085 180.439 20.062C180.394 20.8931 180.36 21.7017 180.338 22.4878C180.338 23.2515 180.338 23.9365 180.338 24.543C180.36 25.127 180.372 25.5986 180.372 25.958C180.394 26.3174 180.417 26.4858 180.439 26.4634C180.978 25.1157 181.663 23.8018 182.494 22.5215C183.325 21.2412 184.179 20.0732 185.055 19.0176C185.931 17.9395 186.773 17.0298 187.582 16.2886C188.39 15.5249 189.053 14.9971 189.569 14.7051C190.603 14.1211 191.636 13.6943 192.669 13.4248C193.702 13.1553 194.724 13.0205 195.735 13.0205C197.869 13.0205 199.958 13.582 202.001 14.7051C203.012 15.2891 203.978 15.9629 204.899 16.7266C205.82 17.4902 206.707 18.4111 207.561 19.4893C208.414 20.4326 209.178 21.4883 209.852 22.6562C210.525 23.8242 211.121 25.0933 211.637 26.4634C212.581 29.0239 213.052 31.7754 213.052 34.7178ZM207.325 34.7178C207.37 32.7188 207.269 30.8545 207.021 29.125C206.774 27.373 206.415 25.7222 205.943 24.1724C205.539 22.6226 205.011 21.2637 204.36 20.0957C203.731 18.9053 203.001 17.8833 202.17 17.0298C201.249 16.1763 200.261 15.5249 199.205 15.0757C198.172 14.6265 197.015 14.4019 195.735 14.4019C194.522 14.4019 193.388 14.6152 192.332 15.042C191.276 15.4463 190.311 16.1089 189.435 17.0298C188.536 17.9282 187.761 18.9614 187.11 20.1294C186.481 21.2749 185.942 22.6226 185.493 24.1724C185.088 25.7222 184.763 27.373 184.516 29.125C184.269 30.8545 184.145 32.7188 184.145 34.7178C184.145 36.6943 184.269 38.5474 184.516 40.2769C184.763 42.0063 185.088 43.6572 185.493 45.2295C186.369 48.2393 187.683 50.5752 189.435 52.2373C190.288 53.0908 191.243 53.7422 192.298 54.1914C193.376 54.6406 194.522 54.8652 195.735 54.8652C196.701 54.8652 197.599 54.7305 198.43 54.4609C199.261 54.1914 200.036 53.8208 200.755 53.3491C201.496 52.8325 202.17 52.2485 202.776 51.5972C203.383 50.9458 203.922 50.1709 204.394 49.2725C204.91 48.3965 205.326 47.4307 205.64 46.375C205.977 45.2969 206.269 44.1177 206.516 42.8374C206.763 41.6021 206.954 40.3105 207.089 38.9629C207.246 37.6152 207.325 36.2002 207.325 34.7178ZM251.359 34.7178C251.359 36.582 251.135 38.3901 250.686 40.1421C250.259 41.894 249.63 43.6123 248.799 45.2969C247.137 48.6436 244.936 51.2715 242.195 53.1807C239.545 55.1572 236.827 56.1455 234.042 56.1455C231.279 56.1455 228.55 55.1572 225.855 53.1807C224.507 52.2373 223.272 51.103 222.149 49.7778C221.026 48.4526 220.038 46.959 219.184 45.2969C217.522 42.0625 216.691 38.5361 216.691 34.7178C216.691 31.8428 217.196 29.0913 218.207 26.4634C218.656 25.1382 219.218 23.8916 219.892 22.7236C220.588 21.5557 221.363 20.4775 222.216 19.4893C223.07 18.4561 223.957 17.5464 224.878 16.7603C225.821 15.9741 226.798 15.2891 227.809 14.7051C229.853 13.582 231.931 13.0205 234.042 13.0205C235.053 13.0205 236.075 13.1553 237.108 13.4248C238.141 13.6943 239.163 14.1211 240.174 14.7051C241.185 15.2891 242.15 15.9629 243.071 16.7266C244.015 17.4902 244.913 18.4111 245.767 19.4893C247.496 21.3984 248.855 23.7231 249.843 26.4634C250.292 27.7437 250.652 29.0688 250.921 30.439C251.213 31.8091 251.359 33.2354 251.359 34.7178ZM245.531 34.7178C245.531 32.7188 245.43 30.8545 245.228 29.125C245.025 27.373 244.688 25.7222 244.217 24.1724C243.768 22.6226 243.229 21.2637 242.6 20.0957C241.993 18.9053 241.241 17.8833 240.342 17.0298C238.59 15.2778 236.49 14.4019 234.042 14.4019C232.762 14.4019 231.594 14.6152 230.538 15.042C229.482 15.4463 228.517 16.1089 227.641 17.0298C225.934 18.7144 224.642 21.0952 223.766 24.1724C223.317 25.7222 222.98 27.373 222.755 29.125C222.531 30.8545 222.418 32.7188 222.418 34.7178C222.418 36.6943 222.531 38.5474 222.755 40.2769C222.98 42.0063 223.317 43.6572 223.766 45.2295C224.62 48.2168 225.911 50.5527 227.641 52.2373C228.517 53.0908 229.482 53.7422 230.538 54.1914C231.594 54.6406 232.762 54.8652 234.042 54.8652C234.985 54.8652 235.873 54.7305 236.704 54.4609C237.535 54.1914 238.31 53.8208 239.028 53.3491C239.77 52.8325 240.432 52.2485 241.016 51.5972C241.6 50.9458 242.117 50.1709 242.566 49.2725C243.577 47.5205 244.318 45.3755 244.79 42.8374C245.037 41.6021 245.216 40.3105 245.329 38.9629C245.463 37.6152 245.531 36.2002 245.531 34.7178ZM297.348 41.0854C297.348 42.4556 297.191 43.7808 296.876 45.061C296.584 46.3188 296.09 47.5205 295.394 48.666C294.63 49.8789 293.799 50.9346 292.901 51.833C292.002 52.709 290.98 53.4727 289.835 54.124C288.689 54.7529 287.533 55.2358 286.365 55.5728C285.219 55.9097 284.029 56.1006 282.793 56.1455C282.277 56.1455 281.625 56.123 280.839 56.0781C280.053 56.0557 279.132 55.9321 278.077 55.7075C277.021 55.5054 275.819 55.1797 274.472 54.7305C273.124 54.2812 271.619 53.6411 269.957 52.8101V51.4961C270.743 51.9902 272.057 52.6079 273.899 53.3491C274.797 53.6411 275.718 53.9106 276.662 54.1577C277.627 54.3823 278.649 54.4946 279.728 54.4946C280.177 54.4946 280.502 54.4834 280.705 54.4609C280.929 54.4385 281.12 54.416 281.277 54.3936C281.435 54.3486 281.614 54.2925 281.816 54.2251C282.019 54.1577 282.344 54.0791 282.793 53.9893C284.208 53.7197 285.478 53.1807 286.601 52.3721C287.724 51.5635 288.667 50.5752 289.431 49.4072C290.194 48.2393 290.767 46.9478 291.149 45.5327C291.553 44.0952 291.722 42.6128 291.654 41.0854C291.542 38.8843 291.104 36.9863 290.34 35.3916C289.577 33.7969 288.341 32.4043 286.634 31.2139C285.601 30.5176 284.557 30.0122 283.501 29.6978C282.468 29.3608 281.378 29.1924 280.233 29.1924C279.784 29.1924 279.312 29.2036 278.818 29.2261C278.324 29.2261 277.852 29.2261 277.403 29.2261C276.886 29.2485 276.37 29.2598 275.853 29.2598V27.6089C276.437 27.6313 277.032 27.6538 277.639 27.6763C278.155 27.6987 278.706 27.71 279.29 27.71C279.896 27.71 280.458 27.6987 280.974 27.6763C281.603 27.6538 282.367 27.5415 283.265 27.3394C284.186 27.1372 285.062 26.8003 285.893 26.3286C286.724 25.8345 287.432 25.1943 288.016 24.4082C288.6 23.6221 288.892 22.6338 288.892 21.4434C288.892 20.5225 288.802 19.77 288.622 19.186C288.465 18.5796 288.184 17.9507 287.78 17.2993C287.533 16.8726 287.173 16.4795 286.702 16.1201C286.252 15.7383 285.725 15.4126 285.118 15.1431C284.512 14.8735 283.849 14.6602 283.13 14.5029C282.434 14.3457 281.715 14.2446 280.974 14.1997C280.323 14.1548 279.671 14.1772 279.02 14.2671C278.391 14.3569 277.785 14.5029 277.201 14.7051C276.639 14.8848 276.111 15.0981 275.617 15.3452C275.146 15.5923 274.741 15.8618 274.404 16.1538C272.989 17.3218 272.091 18.2427 271.709 18.9165V13.9639C271.979 13.8965 272.327 13.8403 272.753 13.7954C273.203 13.7505 273.73 13.6719 274.337 13.5596C274.988 13.4922 275.786 13.4023 276.729 13.29C277.695 13.1553 278.616 13.0879 279.492 13.0879C280.031 13.0879 280.66 13.1104 281.378 13.1553C282.12 13.1777 282.872 13.2227 283.636 13.29C284.399 13.3574 285.118 13.4473 285.792 13.5596C286.466 13.6494 287.005 13.7617 287.409 13.8965C288.218 14.2109 288.959 14.5479 289.633 14.9072C290.307 15.2666 290.868 15.6821 291.317 16.1538C291.789 16.603 292.261 17.1421 292.732 17.771C293.204 18.3774 293.496 19.0737 293.608 19.8599C293.676 20.4438 293.709 20.9717 293.709 21.4434C293.709 21.8926 293.665 22.3193 293.575 22.7236C293.507 23.1055 293.384 23.4873 293.204 23.8691C293.024 24.251 292.789 24.6665 292.497 25.1157C292.092 25.7671 291.587 26.2949 290.98 26.6992C290.374 27.0811 289.745 27.3955 289.094 27.6426C288.442 27.8672 287.78 28.0356 287.106 28.1479C286.455 28.2603 285.882 28.3726 285.388 28.4849C285.635 28.5522 285.848 28.6084 286.028 28.6533C286.208 28.6982 286.376 28.7544 286.533 28.8218C286.713 28.8667 286.893 28.9229 287.072 28.9902C287.274 29.0352 287.51 29.1025 287.78 29.1924C289.015 29.6416 290.172 30.1807 291.25 30.8096C292.328 31.416 293.238 32.146 293.979 32.9995C294.338 33.4263 294.72 33.9429 295.125 34.5493C295.529 35.1333 295.888 35.7847 296.203 36.5034C296.54 37.1997 296.809 37.9409 297.011 38.7271C297.236 39.5132 297.348 40.2993 297.348 41.0854ZM325.817 55V53.7197C325.368 53.9219 324.795 54.1353 324.099 54.3599C323.403 54.5845 322.549 54.8428 321.539 55.1348C320.595 55.4268 319.652 55.6626 318.708 55.8423C317.765 56.0444 316.754 56.1455 315.676 56.1455C314.463 56.1006 313.262 55.9097 312.071 55.5728C310.903 55.2358 309.747 54.7529 308.601 54.124C307.478 53.4727 306.467 52.709 305.569 51.833C304.67 50.9346 303.851 49.8789 303.109 48.666C302.413 47.5205 301.896 46.3188 301.56 45.061C301.223 43.7808 301.054 42.4556 301.054 41.0854C301.054 40.1421 301.122 39.1987 301.256 38.2554C301.414 37.312 301.616 36.3237 301.863 35.2905C302.177 34.3472 302.57 33.415 303.042 32.4941C303.536 31.5732 304.165 30.686 304.929 29.8325C305.647 28.979 306.479 28.249 307.422 27.6426C308.365 27.0137 309.477 26.4858 310.757 26.0591C311.97 25.5874 313.149 25.228 314.295 24.981C315.463 24.7114 316.575 24.5767 317.63 24.5767C318.641 24.5767 319.562 24.644 320.393 24.7788C321.247 24.8911 322.044 25.0933 322.785 25.3853C323.526 25.6323 324.133 25.8682 324.604 26.0928C325.099 26.3174 325.503 26.5083 325.817 26.6655C325.817 22.5552 325.087 19.4893 323.627 17.4678C322.19 15.4238 320.034 14.4019 317.159 14.4019H316.957C315.474 14.4019 314.272 14.6489 313.352 15.1431C312.431 15.6147 311.723 16.2773 311.229 17.1309C310.69 18.0293 310.297 18.8379 310.05 19.5566C309.825 20.2529 309.69 20.8818 309.646 21.4434H304.491C304.491 21.1064 304.536 20.7358 304.625 20.3315C304.715 19.9048 304.861 19.4556 305.063 18.9839C305.311 18.4673 305.603 17.9844 305.939 17.5352C306.276 17.0635 306.692 16.603 307.186 16.1538C307.635 15.6821 308.186 15.2666 308.837 14.9072C309.511 14.5479 310.241 14.2109 311.027 13.8965C311.858 13.627 312.756 13.4136 313.722 13.2563C314.688 13.0991 315.766 13.0205 316.957 13.0205C318.259 13.0205 319.483 13.1104 320.629 13.29C321.774 13.4697 322.886 13.7505 323.964 14.1323C325.941 14.8286 327.536 16.0415 328.749 17.771C329.333 18.6021 329.782 19.5005 330.096 20.4663C330.411 21.4321 330.568 22.5215 330.568 23.7344V55H325.817ZM325.817 28.3501C325.503 28.1704 325.11 27.9683 324.638 27.7437C324.167 27.4966 323.571 27.2158 322.853 26.9014C321.415 26.3398 319.888 26.0591 318.271 26.0591C317.125 26.0591 316.024 26.2163 314.969 26.5308C313.913 26.8452 312.88 27.3506 311.869 28.0469C308.5 30.3379 306.815 34.145 306.815 39.4683V41.0854C306.815 44.8589 307.59 47.8237 309.14 49.98C310.69 52.1138 312.869 53.4502 315.676 53.9893C317.518 54.3711 318.484 54.562 318.574 54.562C320.371 54.562 321.909 54.2251 323.189 53.5513C323.841 53.2368 324.38 52.9448 324.807 52.6753C325.233 52.3833 325.57 52.125 325.817 51.9004V28.3501ZM360.418 55C360.396 54.7979 360.351 54.3262 360.284 53.585C360.216 52.8438 360.115 51.9678 359.98 50.957C359.868 49.9238 359.745 48.812 359.61 47.6216C359.475 46.4312 359.34 45.2969 359.206 44.2188C359.093 43.1182 358.981 42.1411 358.869 41.2876C358.756 40.4116 358.678 39.7715 358.633 39.3672C358.565 38.8281 358.453 38.1655 358.296 37.3794C358.139 36.5708 357.903 35.7061 357.588 34.7852C357.296 33.8418 356.903 32.876 356.409 31.8877C355.938 30.877 355.354 29.8999 354.657 28.9565C353.062 29.8999 351.625 30.6074 350.345 31.0791C349.087 31.5508 347.941 31.8765 346.908 32.0562C345.897 32.2134 344.999 32.2695 344.213 32.2246C343.427 32.1797 342.742 32.1011 342.158 31.9888V55H337.003V13.1553H342.158V30.8096C342.427 30.9219 342.764 30.9893 343.168 31.0117C343.505 31.0342 343.921 31.0229 344.415 30.978C344.932 30.9331 345.538 30.8096 346.234 30.6074C347.604 30.293 348.761 29.8101 349.705 29.1587C350.648 28.5073 351.513 27.7549 352.299 26.9014C352.681 26.4521 353.119 25.8008 353.613 24.9473C354.107 24.0713 354.5 23.0381 354.792 21.8477C355.084 20.6572 355.196 19.332 355.129 17.8721C355.084 16.4121 354.725 14.8623 354.051 13.2227H360.52C360.609 14.4805 360.666 15.6147 360.688 16.6255C360.71 17.6362 360.654 18.6021 360.52 19.5229C360.385 20.4214 360.138 21.3086 359.778 22.1846C359.441 23.0605 358.958 23.9814 358.33 24.9473C358.083 25.3066 357.858 25.6211 357.656 25.8906C357.454 26.1602 357.24 26.4185 357.016 26.6655C356.813 26.8901 356.578 27.126 356.308 27.373C356.061 27.5977 355.769 27.8447 355.432 28.1143C356.151 28.4512 356.926 28.9453 357.757 29.5967C358.61 30.248 359.419 31.0679 360.183 32.0562C360.969 33.022 361.665 34.1675 362.271 35.4927C362.9 36.8179 363.361 38.334 363.653 40.041C363.967 42.1973 364.237 44.0952 364.461 45.7349C364.686 47.3745 365.012 48.7671 365.438 49.9126C365.73 50.8335 366.034 51.6196 366.348 52.271C366.663 52.8999 366.943 53.4165 367.19 53.8208C367.482 54.2925 367.774 54.6855 368.066 55H360.418ZM395.154 55V53.7197C394.705 53.9219 394.132 54.1353 393.436 54.3599C392.74 54.5845 391.886 54.8428 390.875 55.1348C389.932 55.4268 388.989 55.6626 388.045 55.8423C387.102 56.0444 386.091 56.1455 385.013 56.1455C383.8 56.1006 382.599 55.9097 381.408 55.5728C380.24 55.2358 379.083 54.7529 377.938 54.124C376.815 53.4727 375.804 52.709 374.906 51.833C374.007 50.9346 373.188 49.8789 372.446 48.666C371.75 47.5205 371.233 46.3188 370.896 45.061C370.56 43.7808 370.391 42.4556 370.391 41.0854C370.391 40.1421 370.458 39.1987 370.593 38.2554C370.75 37.312 370.953 36.3237 371.2 35.2905C371.514 34.3472 371.907 33.415 372.379 32.4941C372.873 31.5732 373.502 30.686 374.266 29.8325C374.984 28.979 375.815 28.249 376.759 27.6426C377.702 27.0137 378.814 26.4858 380.094 26.0591C381.307 25.5874 382.486 25.228 383.632 24.981C384.8 24.7114 385.912 24.5767 386.967 24.5767C387.978 24.5767 388.899 24.644 389.73 24.7788C390.583 24.8911 391.381 25.0933 392.122 25.3853C392.863 25.6323 393.47 25.8682 393.941 26.0928C394.436 26.3174 394.84 26.5083 395.154 26.6655C395.154 22.5552 394.424 19.4893 392.964 17.4678C391.527 15.4238 389.371 14.4019 386.496 14.4019H386.293C384.811 14.4019 383.609 14.6489 382.688 15.1431C381.768 15.6147 381.06 16.2773 380.566 17.1309C380.027 18.0293 379.634 18.8379 379.387 19.5566C379.162 20.2529 379.027 20.8818 378.982 21.4434H373.828C373.828 21.1064 373.873 20.7358 373.962 20.3315C374.052 19.9048 374.198 19.4556 374.4 18.9839C374.647 18.4673 374.939 17.9844 375.276 17.5352C375.613 17.0635 376.029 16.603 376.523 16.1538C376.972 15.6821 377.522 15.2666 378.174 14.9072C378.848 14.5479 379.578 14.2109 380.364 13.8965C381.195 13.627 382.093 13.4136 383.059 13.2563C384.025 13.0991 385.103 13.0205 386.293 13.0205C387.596 13.0205 388.82 13.1104 389.966 13.29C391.111 13.4697 392.223 13.7505 393.301 14.1323C395.278 14.8286 396.873 16.0415 398.085 17.771C398.669 18.6021 399.119 19.5005 399.433 20.4663C399.748 21.4321 399.905 22.5215 399.905 23.7344V55H395.154ZM395.154 28.3501C394.84 28.1704 394.447 27.9683 393.975 27.7437C393.503 27.4966 392.908 27.2158 392.189 26.9014C390.752 26.3398 389.225 26.0591 387.607 26.0591C386.462 26.0591 385.361 26.2163 384.306 26.5308C383.25 26.8452 382.217 27.3506 381.206 28.0469C377.837 30.3379 376.152 34.145 376.152 39.4683V41.0854C376.152 44.8589 376.927 47.8237 378.477 49.98C380.027 52.1138 382.206 53.4502 385.013 53.9893C386.855 54.3711 387.821 54.562 387.911 54.562C389.708 54.562 391.246 54.2251 392.526 53.5513C393.178 53.2368 393.717 52.9448 394.144 52.6753C394.57 52.3833 394.907 52.125 395.154 51.9004V28.3501ZM431.642 41.0854C431.642 42.4556 431.485 43.7808 431.17 45.061C430.878 46.3188 430.384 47.5205 429.688 48.666C428.924 49.8789 428.093 50.9346 427.195 51.833C426.296 52.709 425.274 53.4727 424.129 54.124C422.983 54.7529 421.827 55.2358 420.659 55.5728C419.513 55.9097 418.323 56.1006 417.087 56.1455C416.571 56.1455 415.919 56.123 415.133 56.0781C414.347 56.0557 413.426 55.9321 412.371 55.7075C411.315 55.5054 410.113 55.1797 408.766 54.7305C407.418 54.2812 405.913 53.6411 404.251 52.8101V51.4961C405.037 51.9902 406.351 52.6079 408.193 53.3491C409.091 53.6411 410.012 53.9106 410.956 54.1577C411.921 54.3823 412.943 54.4946 414.021 54.4946C414.471 54.4946 414.796 54.4834 414.999 54.4609C415.223 54.4385 415.414 54.416 415.571 54.3936C415.729 54.3486 415.908 54.2925 416.11 54.2251C416.312 54.1577 416.638 54.0791 417.087 53.9893C418.502 53.7197 419.771 53.1807 420.895 52.3721C422.018 51.5635 422.961 50.5752 423.725 49.4072C424.488 48.2393 425.061 46.9478 425.443 45.5327C425.847 44.0952 426.016 42.6128 425.948 41.0854C425.836 38.8843 425.398 36.9863 424.634 35.3916C423.871 33.7969 422.635 32.4043 420.928 31.2139C419.895 30.5176 418.851 30.0122 417.795 29.6978C416.762 29.3608 415.672 29.1924 414.527 29.1924C414.078 29.1924 413.606 29.2036 413.112 29.2261C412.618 29.2261 412.146 29.2261 411.697 29.2261C411.18 29.2485 410.664 29.2598 410.147 29.2598V27.6089C410.731 27.6313 411.326 27.6538 411.933 27.6763C412.449 27.6987 413 27.71 413.583 27.71C414.19 27.71 414.751 27.6987 415.268 27.6763C415.897 27.6538 416.661 27.5415 417.559 27.3394C418.48 27.1372 419.356 26.8003 420.187 26.3286C421.018 25.8345 421.726 25.1943 422.31 24.4082C422.894 23.6221 423.186 22.6338 423.186 21.4434C423.186 20.5225 423.096 19.77 422.916 19.186C422.759 18.5796 422.478 17.9507 422.074 17.2993C421.827 16.8726 421.467 16.4795 420.996 16.1201C420.546 15.7383 420.019 15.4126 419.412 15.1431C418.806 14.8735 418.143 14.6602 417.424 14.5029C416.728 14.3457 416.009 14.2446 415.268 14.1997C414.617 14.1548 413.965 14.1772 413.314 14.2671C412.685 14.3569 412.079 14.5029 411.495 14.7051C410.933 14.8848 410.405 15.0981 409.911 15.3452C409.439 15.5923 409.035 15.8618 408.698 16.1538C407.283 17.3218 406.385 18.2427 406.003 18.9165V13.9639C406.272 13.8965 406.621 13.8403 407.047 13.7954C407.497 13.7505 408.024 13.6719 408.631 13.5596C409.282 13.4922 410.08 13.4023 411.023 13.29C411.989 13.1553 412.91 13.0879 413.786 13.0879C414.325 13.0879 414.954 13.1104 415.672 13.1553C416.414 13.1777 417.166 13.2227 417.93 13.29C418.693 13.3574 419.412 13.4473 420.086 13.5596C420.76 13.6494 421.299 13.7617 421.703 13.8965C422.512 14.2109 423.253 14.5479 423.927 14.9072C424.601 15.2666 425.162 15.6821 425.611 16.1538C426.083 16.603 426.555 17.1421 427.026 17.771C427.498 18.3774 427.79 19.0737 427.902 19.8599C427.97 20.4438 428.003 20.9717 428.003 21.4434C428.003 21.8926 427.958 22.3193 427.869 22.7236C427.801 23.1055 427.678 23.4873 427.498 23.8691C427.318 24.251 427.083 24.6665 426.791 25.1157C426.386 25.7671 425.881 26.2949 425.274 26.6992C424.668 27.0811 424.039 27.3955 423.388 27.6426C422.736 27.8672 422.074 28.0356 421.4 28.1479C420.749 28.2603 420.176 28.3726 419.682 28.4849C419.929 28.5522 420.142 28.6084 420.322 28.6533C420.501 28.6982 420.67 28.7544 420.827 28.8218C421.007 28.8667 421.187 28.9229 421.366 28.9902C421.568 29.0352 421.804 29.1025 422.074 29.1924C423.309 29.6416 424.466 30.1807 425.544 30.8096C426.622 31.416 427.532 32.146 428.273 32.9995C428.632 33.4263 429.014 33.9429 429.418 34.5493C429.823 35.1333 430.182 35.7847 430.497 36.5034C430.833 37.1997 431.103 37.9409 431.305 38.7271C431.53 39.5132 431.642 40.2993 431.642 41.0854ZM444.849 9.07861C444.849 10.6509 444.692 12.9756 444.377 16.0527C443.928 20.5674 443.681 23.1841 443.636 23.9028C443.165 29.9673 442.479 37.0986 441.581 45.2969H440.233C439.807 41.2314 439.144 34.1001 438.246 23.9028C438.156 22.6001 437.875 19.9385 437.403 15.918C436.999 12.7285 436.797 10.3477 436.797 8.77539C436.797 4.32812 438.223 2.10449 441.076 2.10449C443.591 2.10449 444.849 4.4292 444.849 9.07861ZM441.312 56.1118C440.009 56.1118 438.987 55.7075 438.246 54.8989C437.504 54.0679 437.134 53.1021 437.134 52.0015C437.134 50.9458 437.459 50.0474 438.111 49.3062C438.852 48.52 439.84 48.127 441.076 48.127C442.221 48.127 443.142 48.5649 443.838 49.4409C444.445 50.2495 444.748 51.2153 444.748 52.3384C444.748 54.854 443.603 56.1118 441.312 56.1118Z" fill="white"></path> </svg> 